<svg width="49" height="85" viewBox="0 0 49 85" fill="none" xmlns="http://www.w3.org/2000/svg">
<path d="M47.3324 58.4608C48.2021 58.4608 48.9071 57.7175 48.9071 56.8007C48.9071 55.8838 48.2021 55.1405 47.3324 55.1405C46.4628 55.1405 45.7578 55.8838 45.7578 56.8007C45.7578 57.7175 46.4628 58.4608 47.3324 58.4608Z" fill="#E62D78"/>
<path d="M48.2881 5.07012C47.8913 4.08066 47.3244 3.19414 46.6001 2.43213C45.8773 1.67012 45.0364 1.0708 44.098 0.652441C43.128 0.219141 42.0966 0 41.0337 0H7.96643C6.90355 0 5.87216 0.219141 4.90219 0.652441C3.96371 1.0708 3.12286 1.67012 2.4001 2.43213C1.67577 3.19414 1.1089 4.08066 0.712093 5.07012C0.301113 6.09277 0.0932617 7.18018 0.0932617 8.30078V76.6992C0.0932617 77.8198 0.301113 78.9072 0.712093 79.9299C1.1089 80.9193 1.67577 81.8059 2.4001 82.5679C3.12286 83.3315 3.96371 83.9292 4.90219 84.3476C5.87216 84.7809 6.90355 85 7.96643 85H41.0337C42.0966 85 43.128 84.7809 44.098 84.3476C45.0364 83.9292 45.8773 83.3315 46.6001 82.5679C47.3244 81.8059 47.8913 80.9193 48.2881 79.9299C48.699 78.9072 48.9069 77.8198 48.9069 76.6992V64.2713C48.9069 63.3565 48.1999 62.6111 47.3323 62.6111C46.4646 62.6111 45.7576 63.3565 45.7576 64.2713V76.6992C45.7529 79.4401 43.6334 81.6747 41.0337 81.6797H7.96643C5.36671 81.6747 3.24725 79.4401 3.24253 76.6992V8.30078C3.24725 5.55986 5.36671 3.32529 7.96643 3.32031H9.15685L11.1821 10.4381C11.382 11.1403 11.995 11.6211 12.6903 11.6211H36.3098C37.0052 11.6211 37.6182 11.1403 37.818 10.4381L39.8433 3.32031H41.0337C43.6334 3.32529 45.7529 5.55986 45.7576 8.30078V49.3299C45.7576 50.2463 46.4646 50.99 47.3323 50.99C48.1999 50.99 48.9069 50.2463 48.9069 49.3299V8.30078C48.9069 7.18018 48.699 6.09277 48.2881 5.07012ZM35.1383 8.30078H13.8619L12.4447 3.32031H36.5555L35.1383 8.30078Z" fill="#E62D78"/>
<path d="M34.2623 55.1172H21.8227C20.9551 55.1172 20.248 55.8626 20.248 56.7773C20.248 57.6921 20.9551 58.4375 21.8227 58.4375H34.2623C35.1299 58.4375 35.8369 57.6921 35.8369 56.7773C35.8369 55.8626 35.1299 55.1172 34.2623 55.1172Z" fill="#E62D78"/>
<path d="M14.7377 58.4375C15.6074 58.4375 16.3124 57.6942 16.3124 56.7773C16.3124 55.8605 15.6074 55.1172 14.7377 55.1172C13.8681 55.1172 13.1631 55.8605 13.1631 56.7773C13.1631 57.6942 13.8681 58.4375 14.7377 58.4375Z" fill="#E62D78"/>
<path d="M34.2623 62.5878H21.8227C20.9551 62.5878 20.248 63.3332 20.248 64.2479C20.248 65.1627 20.9551 65.9081 21.8227 65.9081H34.2623C35.1299 65.9081 35.8369 65.1627 35.8369 64.2479C35.8369 63.3332 35.1299 62.5878 34.2623 62.5878Z" fill="#E62D78"/>
<path d="M14.7377 65.9081C15.6074 65.9081 16.3124 65.1648 16.3124 64.2479C16.3124 63.331 15.6074 62.5878 14.7377 62.5878C13.8681 62.5878 13.1631 63.331 13.1631 64.2479C13.1631 65.1648 13.8681 65.9081 14.7377 65.9081Z" fill="#E62D78"/>
<path d="M34.2623 70.0586H21.8227C20.9551 70.0586 20.248 70.804 20.248 71.7188C20.248 72.6335 20.9551 73.3789 21.8227 73.3789H34.2623C35.1299 73.3789 35.8369 72.6335 35.8369 71.7188C35.8369 70.804 35.1299 70.0586 34.2623 70.0586Z" fill="#E62D78"/>
<path d="M14.7377 73.3789C15.6074 73.3789 16.3124 72.6356 16.3124 71.7188C16.3124 70.8019 15.6074 70.0586 14.7377 70.0586C13.8681 70.0586 13.1631 70.8019 13.1631 71.7188C13.1631 72.6356 13.8681 73.3789 14.7377 73.3789Z" fill="#E62D78"/>
<path d="M39.9691 20.6415C39.5965 20.0702 38.9264 19.8031 38.2888 19.9716L9.94542 27.4586C9.29462 27.6306 8.81861 28.2183 8.75956 28.923C8.70051 29.6276 9.0715 30.2943 9.68371 30.5839L19.7371 35.3379L20.5287 46.607C20.5778 47.3068 21.039 47.8985 21.6805 48.0849C21.8193 48.1252 21.9597 48.1447 22.0989 48.1447C22.6034 48.1447 23.0883 47.8883 23.3879 47.4379L39.9603 22.5356C40.338 21.968 40.3415 21.2128 39.9691 20.6415ZM23.3437 41.7238L22.8084 34.1054C22.7658 33.4973 22.4102 32.9629 21.8826 32.7132L15.1189 29.5149L34.9558 24.2749L23.3437 41.7238Z" fill="#E62D78"/>
</svg>
