<svg width="63" height="85" viewBox="0 0 63 85" fill="none" xmlns="http://www.w3.org/2000/svg">
<path d="M31.4999 35.4167C14.399 35.4368 0.541044 50.013 0.521973 68.0001C0.521973 68.7824 1.12504 69.4168 1.86884 69.4168H16.6844C17.4282 69.4168 18.0312 68.7824 18.0312 68.0001C18.0391 61.4943 22.258 55.8311 28.2616 54.2671C34.2653 52.7031 40.5097 55.6402 43.4034 61.3899L34.5073 65.1868C33.1421 63.5813 30.8488 63.3095 29.1771 64.5532C27.5053 65.7969 26.9865 68.162 27.971 70.0511C28.9555 71.9395 31.1297 72.7516 33.0257 71.9381C34.604 71.2568 35.605 69.6056 35.5274 67.8133L44.4234 64.015C44.7851 65.3092 44.9692 66.6512 44.9686 68.0001C44.9686 68.7824 45.5716 69.4168 46.3154 69.4168H61.131C61.8748 69.4168 62.4779 68.7824 62.4779 68.0001C62.4588 50.013 48.6008 35.4368 31.4999 35.4167ZM32.0063 69.313C31.6755 69.4541 31.3046 69.4513 30.9758 69.3047C30.6463 69.1601 30.3859 68.8814 30.253 68.5327C30.0458 68.0015 30.1642 67.3921 30.5522 66.9881C30.9403 66.5848 31.5216 66.4672 32.0241 66.6913C32.3535 66.8359 32.614 67.114 32.7468 67.4633C32.8829 67.8119 32.881 68.2028 32.7422 68.55C32.6028 68.8973 32.3384 69.1719 32.0063 69.313ZM15.3941 66.5834H3.24662C3.56229 59.682 6.16198 53.114 10.5952 48.0153L19.1749 57.0396C16.9981 59.7277 15.6762 63.0646 15.3941 66.5834ZM21.0808 55.0377L12.5011 46.0134C17.3519 41.3622 23.5963 38.6402 30.153 38.3193V51.0693C26.8089 51.3626 23.6364 52.7509 21.0808 55.0377ZM32.8468 51.0679V38.3179C39.4042 38.6395 45.6479 41.3615 50.4988 46.0134L41.9191 55.0377C39.3634 52.7502 36.1909 51.3619 32.8468 51.0679ZM47.6058 66.5834C47.5045 65.3487 47.2736 64.1298 46.9172 62.9484L53.2221 60.2568L52.2093 57.6317L45.909 60.3232C45.3375 59.148 44.6384 58.0468 43.8249 57.0424L52.4046 48.018C56.8372 53.1161 59.4369 59.6827 59.7532 66.5834H47.6058Z" fill="#E62D78"/>
<path d="M54.3969 79.3334C54.3969 80.8981 53.1907 82.1667 51.7031 82.1667H11.2971C9.80953 82.1667 8.6034 80.8981 8.6034 79.3334V72.2501H5.90967V79.3334C5.90967 82.4628 8.32193 85.0001 11.2971 85.0001H51.7031C54.6783 85.0001 57.0906 82.4628 57.0906 79.3334V72.2501H54.3969V79.3334Z" fill="#E62D78"/>
<path d="M57.0906 42.5V5.66667C57.0906 2.53727 54.6783 0 51.7031 0H11.2971C8.32193 0 5.90967 2.53727 5.90967 5.66667V42.5H8.6034V5.66667C8.6034 4.10197 9.80953 2.83333 11.2971 2.83333H51.7031C53.1907 2.83333 54.3969 4.10197 54.3969 5.66667V42.5H57.0906Z" fill="#E62D78"/>
<path d="M27.4595 5.66669H30.1532V8.50002H27.4595V5.66669Z" fill="#E62D78"/>
<path d="M32.8467 5.66669H35.5404V8.50002H32.8467V5.66669Z" fill="#E62D78"/>
<path d="M30.1533 76.5H32.8471V79.3333H30.1533V76.5Z" fill="#E62D78"/>
<path d="M42.2751 19.8334H15.3378V17H30.1533V14.1667H15.3378V11.3334H12.644V34H15.3378V28.3334H36.8876V25.5H15.3378V22.6667H42.2751V19.8334Z" fill="#E62D78"/>
<path d="M32.8467 14.1667H35.5404V17.0001H32.8467V14.1667Z" fill="#E62D78"/>
<path d="M39.5811 25.4999H42.2748V28.3333H39.5811V25.4999Z" fill="#E62D78"/>
<path d="M44.9688 19.8333H47.6625V22.6666H44.9688V19.8333Z" fill="#E62D78"/>
</svg>
