<svg width="60" height="60" viewBox="0 0 60 60" fill="none" xmlns="http://www.w3.org/2000/svg">
<path d="M28.9804 38.7518C29.3229 39.0943 29.8659 39.0808 30.192 38.7208C30.5186 38.3608 30.5049 37.7911 30.1624 37.4482L23.5873 30.9001L38.1429 30.9001C38.616 30.9001 39 30.4969 39 30.0001C39 29.5033 38.616 29.1001 38.1429 29.1001L23.6147 29.1001L30.1624 22.5516C30.5053 22.2087 30.5186 21.639 30.192 21.279C30.0236 21.0936 29.7977 21 29.5714 21C29.3589 21 29.1463 21.0823 28.9804 21.2484L21.5023 28.7275C21.1783 29.0673 21 29.5191 21 30.0001C21 30.4812 21.1783 30.933 21.5173 31.288L28.9804 38.7518Z" fill="white"/>
<circle cx="30" cy="30" r="29" transform="rotate(-180 30 30)" stroke="white" stroke-width="2"/>
</svg>
