<svg width="168" height="56" viewBox="0 0 168 56" fill="none" xmlns="http://www.w3.org/2000/svg">
<g clip-path="url(#clip0)">
<path d="M59.7617 18.8528C59.7617 18.5735 59.9826 18.354 60.2638 18.354H62.794C63.0751 18.354 63.296 18.5735 63.296 18.8528V34.1545H70.2642C70.5454 34.1545 70.7663 34.374 70.7663 34.6533V36.8877C70.7663 37.167 70.5454 37.3864 70.2642 37.3864H60.2638C59.9826 37.3864 59.7617 37.167 59.7617 36.8877V18.8528Z" fill="white"/>
<path d="M75.104 20.7478C75.104 19.6904 75.9474 18.8525 76.9515 18.8525C78.0158 18.8525 78.8592 19.6904 78.8592 20.7478C78.8592 21.8052 78.0158 22.6431 76.9515 22.6431C75.8872 22.5832 75.104 21.7453 75.104 20.7478ZM75.3249 26.9922C75.3249 26.7129 75.5458 26.4934 75.8269 26.4934H78.076C78.3572 26.4934 78.5781 26.7129 78.5781 26.9922V36.8276C78.5781 37.1069 78.3572 37.3264 78.076 37.3264H75.8269C75.5458 37.3264 75.3249 37.1069 75.3249 36.8276V26.9922Z" fill="white"/>
<path d="M83.2569 27.1119C83.0962 26.7727 83.2569 26.4336 83.6585 26.4336H86.0281C86.3092 26.4336 86.4297 26.5533 86.5301 26.7129L88.719 31.8002H88.7792L91.1488 26.7129C91.2693 26.4336 91.4902 26.4336 91.8316 26.4336H93.9602C94.3618 26.4336 94.5225 26.7129 94.3618 27.1119L89.3616 37.3264C89.3013 37.4461 89.1407 37.6057 88.9198 37.6057H88.7993C88.5784 37.6057 88.3977 37.486 88.3575 37.3264L83.2569 27.1119Z" fill="white"/>
<path d="M103.659 26.2144C106.471 26.2144 108.78 28.3291 108.78 31.3016C108.78 31.4612 108.78 31.8602 108.72 32.0198C108.72 32.2991 108.439 32.4587 108.218 32.4587H101.189C101.25 33.5759 102.254 34.8129 103.84 34.8129C104.684 34.8129 105.467 34.4737 105.969 34.1345C106.25 33.9749 106.471 33.9151 106.692 34.1345L107.816 35.4114C107.977 35.571 108.037 35.9101 107.816 36.1296C106.913 36.9675 105.507 37.6458 103.72 37.6458C100.466 37.6458 98.0968 35.0722 98.0968 31.96C98.0366 28.8478 100.386 26.2144 103.659 26.2144ZM105.567 30.5635C105.507 29.566 104.603 28.7281 103.539 28.7281C102.414 28.7281 101.511 29.566 101.41 30.5635H105.567Z" fill="white"/>
<path d="M119.644 37.047C119.644 37.2465 119.504 37.3862 119.303 37.3862H118.54C118.339 37.3862 118.198 37.2465 118.198 37.047V24.3787C118.198 24.1792 118.339 24.0396 118.54 24.0396H119.303C119.504 24.0396 119.644 24.1792 119.644 24.3787V37.047Z" fill="white"/>
<path d="M136.513 37.3263C136.513 37.5258 136.372 37.6655 136.171 37.6655H135.83L126.974 26.7328V37.1069C126.974 37.3064 126.833 37.446 126.633 37.446H125.93C125.729 37.446 125.588 37.3064 125.588 37.1069V24.2391C125.588 24.0396 125.729 23.8999 125.93 23.8999H126.412L135.127 34.6331C135.127 34.6331 135.127 34.6331 135.187 34.6331V24.4585C135.187 24.259 135.328 24.1194 135.529 24.1194H136.231C136.432 24.1194 136.573 24.259 136.573 24.4585V37.3263H136.513Z" fill="white"/>
<path d="M150.649 24.9976C150.649 25.1971 150.509 25.3367 150.308 25.3367H143.822V30.6036H149.324C149.525 30.6036 149.666 30.7432 149.666 30.9427V31.5013C149.666 31.7008 149.525 31.8405 149.324 31.8405H143.822V37.0275C143.822 37.227 143.681 37.3667 143.481 37.3667H142.697C142.497 37.3667 142.356 37.227 142.356 37.0275V24.3592C142.356 24.1597 142.497 24.02 142.697 24.02H150.288C150.489 24.02 150.629 24.1597 150.629 24.3592L150.649 24.9976Z" fill="white"/>
<path d="M161.092 23.8203C157.256 23.8203 154.184 26.9325 154.184 30.743C154.184 34.5535 157.256 37.6059 161.092 37.6059C164.988 37.6059 168.06 34.6333 168 30.743C168 26.8727 164.927 23.8203 161.092 23.8203ZM161.092 36.2891C158.02 36.2891 155.509 33.7954 155.509 30.743C155.509 27.6906 158.02 25.1969 161.092 25.1969C164.164 25.1969 166.675 27.6906 166.675 30.743C166.675 33.7954 164.164 36.2891 161.092 36.2891Z" fill="white"/>
<path d="M56.1279 0.338489C55.7866 -0.000663233 55.2845 -0.0804631 54.8628 0.099088L0.864258 20.2687C0.663445 20.3086 0.482714 20.4083 0.322064 20.5679C-0.119724 21.0068 -0.119724 21.725 0.322064 22.1839C0.502795 22.3634 0.703608 22.4632 0.924502 22.5031L26.3072 29.4258C26.4277 29.4457 26.5281 29.5056 26.6285 29.6053C26.7289 29.7051 26.7691 29.8048 26.8093 29.9245L33.7373 55.0816C33.7775 55.3011 33.8779 55.5205 34.0586 55.6801C34.5004 56.119 35.2233 56.119 35.6852 55.6801C35.7856 55.5804 35.886 55.4407 35.9262 55.3011L56.3689 1.5754C56.3689 1.5754 56.3689 1.5754 56.3689 1.55545C56.5496 1.15645 56.4492 0.657691 56.1279 0.338489Z" fill="url(#paint0_linear)"/>
</g>
<defs>
<linearGradient id="paint0_linear" x1="-0.000441581" y1="28.0043" x2="56.467" y2="28.0043" gradientUnits="userSpaceOnUse">
<stop stop-color="#503690"/>
<stop offset="1" stop-color="#EA1A6F"/>
</linearGradient>
<clipPath id="clip0">
<rect width="168" height="56" fill="white"/>
</clipPath>
</defs>
</svg>
