<svg width="80" height="85" viewBox="0 0 80 85" fill="none" xmlns="http://www.w3.org/2000/svg">
<path d="M21.3298 10.625H22.5765C22.9072 10.625 23.2243 10.4851 23.4581 10.236C23.6919 9.98693 23.8232 9.64912 23.8232 9.29688C23.8232 8.94463 23.6919 8.60682 23.4581 8.35775C23.2243 8.10868 22.9072 7.96875 22.5765 7.96875H21.3298C20.9991 7.96875 20.682 8.10868 20.4482 8.35775C20.2144 8.60682 20.083 8.94463 20.083 9.29688C20.083 9.64912 20.2144 9.98693 20.4482 10.236C20.682 10.4851 20.9991 10.625 21.3298 10.625Z" fill="#E62D78"/>
<path d="M27.5632 10.625H28.8099C29.1406 10.625 29.4577 10.4851 29.6915 10.236C29.9253 9.98693 30.0566 9.64912 30.0566 9.29688C30.0566 8.94463 29.9253 8.60682 29.6915 8.35775C29.4577 8.10868 29.1406 7.96875 28.8099 7.96875H27.5632C27.2325 7.96875 26.9154 8.10868 26.6816 8.35775C26.4478 8.60682 26.3164 8.94463 26.3164 9.29688C26.3164 9.64912 26.4478 9.98693 26.6816 10.236C26.9154 10.4851 27.2325 10.625 27.5632 10.625Z" fill="#E62D78"/>
<path d="M27.5635 66.4062H22.5765C21.9152 66.4062 21.281 66.6861 20.8133 67.1842C20.3457 67.6824 20.083 68.358 20.083 69.0625V70.3906C20.083 71.0951 20.3457 71.7707 20.8133 72.2689C21.281 72.767 21.9152 73.0469 22.5765 73.0469H27.5635C28.2248 73.0469 28.859 72.767 29.3266 72.2689C29.7943 71.7707 30.057 71.0951 30.057 70.3906V69.0625C30.057 68.358 29.7943 67.6824 29.3266 67.1842C28.859 66.6861 28.2248 66.4062 27.5635 66.4062ZM22.5765 70.3906V69.0625H27.5635V70.3906H22.5765Z" fill="#E62D78"/>
<path d="M66.2122 74.375H63.7188C63.3881 74.375 63.071 74.2351 62.8372 73.986C62.6034 73.7369 62.472 73.3991 62.472 73.0469C62.472 72.6946 62.3407 72.3568 62.1068 72.1077C61.873 71.8587 61.5559 71.7188 61.2253 71.7188C60.8946 71.7188 60.5775 71.8587 60.3437 72.1077C60.1099 72.3568 59.9785 72.6946 59.9785 73.0469C59.9785 74.1008 60.3705 75.1119 61.0687 75.8586C61.7669 76.6054 62.7144 77.027 63.7038 77.0312L63.6876 78.3421C63.6833 78.6941 63.8103 79.0336 64.0408 79.2859C64.2713 79.5381 64.5864 79.6826 64.9169 79.6875H64.9343C65.262 79.6875 65.5765 79.5502 65.8098 79.3051C66.0431 79.06 66.1765 78.727 66.1811 78.378L66.1973 77.0312H66.2122C67.2042 77.0312 68.1556 76.6115 68.857 75.8643C69.5584 75.117 69.9525 74.1036 69.9525 73.0469C69.9525 71.9902 69.5584 70.9767 68.857 70.2295C68.1556 69.4823 67.2042 69.0625 66.2122 69.0625H63.7188C63.3881 69.0625 63.071 68.9226 62.8372 68.6735C62.6034 68.4244 62.472 68.0866 62.472 67.7344C62.472 67.3821 62.6034 67.0443 62.8372 66.7952C63.071 66.5462 63.3881 66.4062 63.7188 66.4062H66.2122C66.5429 66.4062 66.86 66.5462 67.0938 66.7952C67.3276 67.0443 67.459 67.3821 67.459 67.7344C67.459 68.0866 67.5903 68.4244 67.8241 68.6735C68.058 68.9226 68.3751 69.0625 68.7057 69.0625C69.0364 69.0625 69.3535 68.9226 69.5873 68.6735C69.8211 68.4244 69.9525 68.0866 69.9525 67.7344C69.9525 66.6777 69.5584 65.6642 68.857 64.917C68.1556 64.1698 67.2042 63.75 66.2122 63.75V62.4219C66.2122 62.0696 66.0809 61.7318 65.8471 61.4827C65.6133 61.2337 65.2962 61.0938 64.9655 61.0938C64.6348 61.0938 64.3177 61.2337 64.0839 61.4827C63.8501 61.7318 63.7188 62.0696 63.7188 62.4219V63.75C62.7268 63.75 61.7754 64.1698 61.074 64.917C60.3726 65.6642 59.9785 66.6777 59.9785 67.7344C59.9785 68.7911 60.3726 69.8045 61.074 70.5518C61.7754 71.299 62.7268 71.7188 63.7188 71.7188H66.2122C66.5429 71.7188 66.86 71.8587 67.0938 72.1077C67.3276 72.3568 67.459 72.6946 67.459 73.0469C67.459 73.3991 67.3276 73.7369 67.0938 73.986C66.86 74.2351 66.5429 74.375 66.2122 74.375Z" fill="#E62D78"/>
<path d="M76.1864 51.7969C76.517 51.7969 76.8341 51.6569 77.0679 51.4079C77.3018 51.1588 77.4331 50.821 77.4331 50.4688V23.9062C77.4331 23.554 77.3018 23.2162 77.0679 22.9671C76.8341 22.7181 76.517 22.5781 76.1864 22.5781H47.5112V10.625C47.5112 8.8638 46.8545 7.17473 45.6854 5.92937C44.5164 4.68401 42.9308 3.98438 41.2775 3.98438H8.86214C7.20886 3.98438 5.62328 4.68401 4.45423 5.92937C3.28518 7.17473 2.62842 8.8638 2.62842 10.625V70.3906C2.62842 72.1518 3.28518 73.8409 4.45423 75.0863C5.62328 76.3316 7.20886 77.0312 8.86214 77.0312H31.3035V82.3438C31.3035 82.696 31.4349 83.0338 31.6687 83.2829C31.9025 83.532 32.2196 83.6719 32.5503 83.6719H57.4852C57.8158 83.6719 58.133 83.532 58.3668 83.2829C58.6006 83.0338 58.7319 82.696 58.7319 82.3438V81.8789C60.6269 83.0499 62.778 83.6683 64.9686 83.6719C67.1593 83.6754 69.3121 83.0641 71.2104 81.8993C73.1087 80.7346 74.6854 79.0575 75.7817 77.0371C76.878 75.0167 77.4552 72.7243 77.4552 70.3906C77.4552 68.057 76.878 65.7645 75.7817 63.7441C74.6854 61.7237 73.1087 60.0467 71.2104 58.8819C69.3121 57.7172 67.1593 57.1058 64.9686 57.1094C62.778 57.113 60.6269 57.7314 58.7319 58.9023V51.7969H76.1864ZM5.12191 10.625C5.12487 9.56925 5.51988 8.55764 6.22067 7.8111C6.92146 7.06457 7.87108 6.64378 8.86214 6.64062H41.2775C42.2686 6.64378 43.2182 7.06457 43.919 7.8111C44.6198 8.55764 45.0148 9.56925 45.0177 10.625V11.9531H5.12191V10.625ZM5.12191 14.6094H45.0177V22.5781H41.2775C40.9468 22.5781 40.6297 22.7181 40.3959 22.9671C40.1621 23.2162 40.0308 23.554 40.0308 23.9062V33.2297C39.923 33.2186 39.8148 33.2142 39.7066 33.2164C38.7582 33.3264 37.8825 33.8094 37.2507 34.5708C36.6189 35.3323 36.2765 36.3174 36.2905 37.3336V49.1406H35.0438C34.0527 49.1438 33.1031 49.5646 32.4023 50.3111C31.7015 51.0576 31.3065 52.0692 31.3035 53.125V62.4219H5.12191V14.6094ZM47.5112 54.4531C47.8419 54.4531 48.159 54.3132 48.3928 54.0641C48.6266 53.8151 48.758 53.4772 48.758 53.125V47.8125C48.758 47.4603 48.8893 47.1224 49.1231 46.8734C49.3569 46.6243 49.6741 46.4844 50.0047 46.4844C50.1712 46.4828 50.336 46.5187 50.4885 46.5896C50.6411 46.6606 50.7778 46.765 50.8899 46.8961C51.0066 47.0137 51.099 47.156 51.1613 47.3137C51.2235 47.4715 51.2542 47.6414 51.2515 47.8125V53.125C51.2515 53.4772 51.3828 53.8151 51.6166 54.0641C51.8504 54.3132 52.1675 54.4531 52.4982 54.4531C52.8289 54.4531 53.146 54.3132 53.3798 54.0641C53.6136 53.8151 53.745 53.4772 53.745 53.125V50.4688C53.745 50.1165 53.8763 49.7787 54.1101 49.5296C54.3439 49.2806 54.661 49.1406 54.9917 49.1406C55.1581 49.1391 55.323 49.1749 55.4755 49.2459C55.6281 49.3168 55.7648 49.4213 55.8769 49.5523C55.9936 49.67 56.086 49.8122 56.1482 49.97C56.2105 50.1278 56.2412 50.2976 56.2384 50.4688V65.3172C56.2388 66.631 55.8744 67.9156 55.1912 69.0094L54.3683 70.3109C53.959 70.9682 53.7421 71.7402 53.745 72.5289V73.0469H36.2905V72.5289C36.2934 71.7402 36.0765 70.9682 35.6672 70.3109L34.8443 69.0094C34.1611 67.9156 33.7967 66.631 33.797 65.3172V53.125C33.797 52.7728 33.9284 52.4349 34.1622 52.1859C34.396 51.9368 34.7131 51.7969 35.0438 51.7969H36.2905V58.4375C36.2905 58.7897 36.4219 59.1276 36.6557 59.3766C36.8895 59.6257 37.2066 59.7656 37.5373 59.7656C37.8679 59.7656 38.185 59.6257 38.4189 59.3766C38.6527 59.1276 38.784 58.7897 38.784 58.4375V37.3336C38.774 36.9833 38.8834 36.641 39.092 36.37C39.3005 36.099 39.5942 35.9176 39.9186 35.8594C40.1032 35.8434 40.2888 35.8722 40.4615 35.9435C40.6343 36.0148 40.7896 36.1268 40.9159 36.2711C41.0326 36.3887 41.125 36.531 41.1873 36.6887C41.2495 36.8465 41.2803 37.0164 41.2775 37.1875V53.125C41.2775 53.4772 41.4089 53.8151 41.6427 54.0641C41.8765 54.3132 42.1936 54.4531 42.5243 54.4531C42.8549 54.4531 43.172 54.3132 43.4058 54.0641C43.6396 53.8151 43.771 53.4772 43.771 53.125V46.4844C43.771 46.1321 43.9023 45.7943 44.1362 45.5452C44.37 45.2962 44.6871 45.1562 45.0177 45.1562C45.1842 45.1547 45.349 45.1906 45.5016 45.2615C45.6541 45.3325 45.7909 45.4369 45.9029 45.568C46.0196 45.6856 46.112 45.8278 46.1743 45.9856C46.2365 46.1434 46.2673 46.3133 46.2645 46.4844V53.125C46.2645 53.4772 46.3958 53.8151 46.6296 54.0641C46.8635 54.3132 47.1806 54.4531 47.5112 54.4531ZM31.3035 74.375H8.86214C7.87108 74.3718 6.92146 73.9511 6.22067 73.2045C5.51988 72.458 5.12487 71.4464 5.12191 70.3906V65.0781H31.3035V65.3172C31.3034 67.1564 31.8154 68.9544 32.7747 70.4836L33.5851 71.7852C33.7222 72.0058 33.7959 72.2643 33.797 72.5289V73.0469H32.5503C32.2196 73.0469 31.9025 73.1868 31.6687 73.4359C31.4349 73.6849 31.3035 74.0228 31.3035 74.375ZM56.2384 81.0156H33.797V75.7031H56.2384V81.0156ZM64.9657 59.7656C66.5616 59.7617 68.1352 60.1657 69.5541 60.9439C70.9731 61.7221 72.1961 62.8517 73.1203 64.2377C74.0445 65.6238 74.643 67.2259 74.8655 68.9094C75.088 70.593 74.9279 72.3088 74.3989 73.9128C73.8698 75.5168 72.9871 76.9622 71.825 78.1274C70.6629 79.2927 69.2552 80.1439 67.7202 80.6094C66.1853 81.075 64.5678 81.1414 63.0038 80.803C61.4398 80.4647 59.9748 79.7314 58.7319 78.6648V74.375C58.7319 74.0228 58.6006 73.6849 58.3668 73.4359C58.133 73.1868 57.8158 73.0469 57.4852 73.0469H56.2384V72.5289C56.2396 72.2643 56.3133 72.0058 56.4504 71.7852L57.2608 70.4836C58.2201 68.9544 58.7321 67.1564 58.7319 65.3172V62.1164C60.4958 60.5954 62.6963 59.7656 64.9657 59.7656ZM58.5075 49.1406C58.327 48.5873 58.0331 48.0837 57.6473 47.6664C57.1272 47.1217 56.4715 46.7471 55.7578 46.5871C55.0441 46.427 54.3024 46.4882 53.6203 46.7633C53.4508 46.099 53.1197 45.4943 52.6603 45.0102C52.0745 44.4076 51.3243 44.0186 50.5177 43.8993C49.7111 43.7799 48.8898 43.9364 48.172 44.3461C48.0307 44.1048 47.8633 43.8819 47.6733 43.682C47.1695 43.1539 46.538 42.7848 45.8491 42.616C45.1602 42.4472 44.4408 42.4852 43.771 42.7258V37.1875C43.7737 36.6671 43.6792 36.1513 43.493 35.6702C43.3068 35.1891 43.0326 34.7523 42.6863 34.3852C42.6365 34.332 42.5741 34.3055 42.5243 34.2523V25.2344H74.9396V49.1406H58.5075Z" fill="#E62D78"/>
<path d="M54.3373 43.6301C54.5179 43.749 54.724 43.8167 54.9361 43.8269C55.1482 43.8372 55.3592 43.7895 55.5492 43.6886L65.5231 38.3761C65.7306 38.2659 65.9051 38.0963 66.0271 37.8863C66.1491 37.6764 66.2137 37.4343 66.2137 37.1874C66.2137 36.9404 66.1491 36.6984 66.0271 36.4884C65.9051 36.2785 65.7306 36.1089 65.5231 35.9987L55.5492 30.6862C55.359 30.585 55.1478 30.5373 54.9355 30.5475C54.7231 30.5577 54.5168 30.6256 54.336 30.7447C54.1553 30.8638 54.0061 31.0302 53.9027 31.228C53.7993 31.4258 53.745 31.6485 53.7451 31.8749V42.4999C53.7451 42.7264 53.7996 42.9492 53.9032 43.1471C54.0069 43.3449 54.1563 43.5112 54.3373 43.6301ZM56.2386 34.0238L62.1781 37.1874L56.2386 40.351V34.0238Z" fill="#E62D78"/>
<path d="M25.0698 17.2656C22.8506 17.2656 20.6812 17.9667 18.8359 19.2801C16.9907 20.5935 15.5525 22.4603 14.7033 24.6445C13.854 26.8286 13.6318 29.232 14.0647 31.5507C14.4977 33.8694 15.5663 35.9992 17.1356 37.6709C18.7048 39.3426 20.7042 40.481 22.8808 40.9422C25.0574 41.4034 27.3135 41.1667 29.3638 40.262C31.4141 39.3573 33.1666 37.8252 34.3995 35.8596C35.6324 33.8939 36.2905 31.5829 36.2905 29.2188C36.2869 26.0498 35.1036 23.0117 33.0001 20.7709C30.8965 18.5301 28.0446 17.2695 25.0698 17.2656ZM21.3296 37.6059V31.875C21.3296 31.5228 21.4609 31.1849 21.6948 30.9359C21.9286 30.6868 22.2457 30.5469 22.5763 30.5469H27.5633C27.894 30.5469 28.2111 30.6868 28.4449 30.9359C28.6787 31.1849 28.8101 31.5228 28.8101 31.875V37.6059C27.6433 38.2047 26.3649 38.5156 25.0698 38.5156C23.7747 38.5156 22.4963 38.2047 21.3296 37.6059ZM23.8231 25.2344C23.8231 24.9717 23.8962 24.7149 24.0332 24.4965C24.1702 24.2781 24.3649 24.1079 24.5927 24.0073C24.8205 23.9068 25.0712 23.8805 25.3131 23.9318C25.5549 23.983 25.777 24.1095 25.9514 24.2952C26.1258 24.481 26.2445 24.7176 26.2926 24.9753C26.3407 25.2329 26.316 25.4999 26.2217 25.7426C26.1273 25.9853 25.9675 26.1927 25.7625 26.3387C25.5575 26.4846 25.3164 26.5625 25.0698 26.5625C24.7392 26.5625 24.4221 26.4226 24.1882 26.1735C23.9544 25.9244 23.8231 25.5866 23.8231 25.2344ZM31.3035 35.7133V31.875C31.3008 30.867 30.9388 29.8977 30.2907 29.1632C29.6427 28.4287 28.7569 27.9838 27.8127 27.9185C28.3063 27.3496 28.6336 26.6398 28.7544 25.8758C28.8752 25.1119 28.7843 24.327 28.4928 23.6172C28.2014 22.9074 27.722 22.3036 27.1134 21.8795C26.5048 21.4554 25.7933 21.2296 25.0661 21.2296C24.3388 21.2296 23.6274 21.4554 23.0188 21.8795C22.4102 22.3036 21.9308 22.9074 21.6393 23.6172C21.3479 24.327 21.257 25.1119 21.3778 25.8758C21.4986 26.6398 21.8259 27.3496 22.3195 27.9185C21.3766 27.9858 20.4927 28.4315 19.8462 29.1658C19.1997 29.9001 18.8387 30.8683 18.8361 31.875V35.7133C17.6334 34.4057 16.8199 32.7489 16.4975 30.9507C16.1752 29.1525 16.3583 27.293 17.0241 25.6053C17.6898 23.9176 18.8085 22.4768 20.2398 21.4636C21.6711 20.4504 23.3513 19.9099 25.0698 19.9099C26.7883 19.9099 28.4686 20.4504 29.8999 21.4636C31.3312 22.4768 32.4498 23.9176 33.1156 25.6053C33.7813 27.293 33.9645 29.1525 33.6421 30.9507C33.3198 32.7489 32.5062 34.4057 31.3035 35.7133Z" fill="#E62D78"/>
<path d="M12.6024 43.8281H11.3556C11.025 43.8281 10.7079 43.9681 10.4741 44.2171C10.2402 44.4662 10.1089 44.804 10.1089 45.1562C10.1089 45.5085 10.2402 45.8463 10.4741 46.0954C10.7079 46.3444 11.025 46.4844 11.3556 46.4844H12.6024C12.933 46.4844 13.2501 46.3444 13.484 46.0954C13.7178 45.8463 13.8491 45.5085 13.8491 45.1562C13.8491 44.804 13.7178 44.4662 13.484 44.2171C13.2501 43.9681 12.933 43.8281 12.6024 43.8281Z" fill="#E62D78"/>
<path d="M30.057 43.8281H17.5895C17.2589 43.8281 16.9417 43.9681 16.7079 44.2171C16.4741 44.4662 16.3428 44.804 16.3428 45.1562C16.3428 45.5085 16.4741 45.8463 16.7079 46.0954C16.9417 46.3444 17.2589 46.4844 17.5895 46.4844H30.057C30.3876 46.4844 30.7047 46.3444 30.9385 46.0954C31.1724 45.8463 31.3037 45.5085 31.3037 45.1562C31.3037 44.804 31.1724 44.4662 30.9385 44.2171C30.7047 43.9681 30.3876 43.8281 30.057 43.8281Z" fill="#E62D78"/>
<path d="M12.6024 49.1406H11.3556C11.025 49.1406 10.7079 49.2806 10.4741 49.5296C10.2402 49.7787 10.1089 50.1165 10.1089 50.4688C10.1089 50.821 10.2402 51.1588 10.4741 51.4079C10.7079 51.6569 11.025 51.7969 11.3556 51.7969H12.6024C12.933 51.7969 13.2501 51.6569 13.484 51.4079C13.7178 51.1588 13.8491 50.821 13.8491 50.4688C13.8491 50.1165 13.7178 49.7787 13.484 49.5296C13.2501 49.2806 12.933 49.1406 12.6024 49.1406Z" fill="#E62D78"/>
<path d="M27.5635 49.1406H17.5895C17.2589 49.1406 16.9417 49.2806 16.7079 49.5296C16.4741 49.7787 16.3428 50.1165 16.3428 50.4688C16.3428 50.821 16.4741 51.1588 16.7079 51.4079C16.9417 51.6569 17.2589 51.7969 17.5895 51.7969H27.5635C27.8941 51.7969 28.2112 51.6569 28.4451 51.4079C28.6789 51.1588 28.8102 50.821 28.8102 50.4688C28.8102 50.1165 28.6789 49.7787 28.4451 49.5296C28.2112 49.2806 27.8941 49.1406 27.5635 49.1406Z" fill="#E62D78"/>
<path d="M12.6024 54.4531H11.3556C11.025 54.4531 10.7079 54.5931 10.4741 54.8421C10.2402 55.0912 10.1089 55.429 10.1089 55.7812C10.1089 56.1335 10.2402 56.4713 10.4741 56.7204C10.7079 56.9694 11.025 57.1094 11.3556 57.1094H12.6024C12.933 57.1094 13.2501 56.9694 13.484 56.7204C13.7178 56.4713 13.8491 56.1335 13.8491 55.7812C13.8491 55.429 13.7178 55.0912 13.484 54.8421C13.2501 54.5931 12.933 54.4531 12.6024 54.4531Z" fill="#E62D78"/>
<path d="M27.5635 54.4531H17.5895C17.2589 54.4531 16.9417 54.5931 16.7079 54.8421C16.4741 55.0912 16.3428 55.429 16.3428 55.7812C16.3428 56.1335 16.4741 56.4713 16.7079 56.7204C16.9417 56.9694 17.2589 57.1094 17.5895 57.1094H27.5635C27.8941 57.1094 28.2112 56.9694 28.4451 56.7204C28.6789 56.4713 28.8102 56.1335 28.8102 55.7812C28.8102 55.429 28.6789 55.0912 28.4451 54.8421C28.2112 54.5931 27.8941 54.4531 27.5635 54.4531Z" fill="#E62D78"/>
<path d="M76.1865 5.3125H51.2516C50.921 5.3125 50.6039 5.45243 50.37 5.7015C50.1362 5.95057 50.0049 6.28838 50.0049 6.64062V18.5938C50.0049 18.946 50.1362 19.2838 50.37 19.5329C50.6039 19.7819 50.921 19.9219 51.2516 19.9219H76.1865C76.5172 19.9219 76.8343 19.7819 77.0681 19.5329C77.3019 19.2838 77.4333 18.946 77.4333 18.5938V6.64062C77.4333 6.28838 77.3019 5.95057 77.0681 5.7015C76.8343 5.45243 76.5172 5.3125 76.1865 5.3125ZM74.9398 17.2656H52.4984V7.96875H74.9398V17.2656Z" fill="#E62D78"/>
<path d="M56.2384 11.9531H57.4852C57.8158 11.9531 58.133 11.8132 58.3668 11.5641C58.6006 11.3151 58.7319 10.9772 58.7319 10.625C58.7319 10.2728 58.6006 9.93495 58.3668 9.68587C58.133 9.4368 57.8158 9.29688 57.4852 9.29688H56.2384C55.9078 9.29688 55.5907 9.4368 55.3569 9.68587C55.1231 9.93495 54.9917 10.2728 54.9917 10.625C54.9917 10.9772 55.1231 11.3151 55.3569 11.5641C55.5907 11.8132 55.9078 11.9531 56.2384 11.9531Z" fill="#E62D78"/>
<path d="M56.2384 15.9375H57.4852C57.8158 15.9375 58.133 15.7976 58.3668 15.5485C58.6006 15.2994 58.7319 14.9616 58.7319 14.6094C58.7319 14.2571 58.6006 13.9193 58.3668 13.6702C58.133 13.4212 57.8158 13.2812 57.4852 13.2812H56.2384C55.9078 13.2812 55.5907 13.4212 55.3569 13.6702C55.1231 13.9193 54.9917 14.2571 54.9917 14.6094C54.9917 14.9616 55.1231 15.2994 55.3569 15.5485C55.5907 15.7976 55.9078 15.9375 56.2384 15.9375Z" fill="#E62D78"/>
<path d="M62.4723 11.9531H71.1995C71.5302 11.9531 71.8473 11.8132 72.0811 11.5641C72.3149 11.3151 72.4463 10.9772 72.4463 10.625C72.4463 10.2728 72.3149 9.93495 72.0811 9.68587C71.8473 9.4368 71.5302 9.29688 71.1995 9.29688H62.4723C62.1417 9.29688 61.8246 9.4368 61.5907 9.68587C61.3569 9.93495 61.2256 10.2728 61.2256 10.625C61.2256 10.9772 61.3569 11.3151 61.5907 11.5641C61.8246 11.8132 62.1417 11.9531 62.4723 11.9531Z" fill="#E62D78"/>
<path d="M62.4723 15.9375H71.1995C71.5302 15.9375 71.8473 15.7976 72.0811 15.5485C72.3149 15.2994 72.4463 14.9616 72.4463 14.6094C72.4463 14.2571 72.3149 13.9193 72.0811 13.6702C71.8473 13.4212 71.5302 13.2812 71.1995 13.2812H62.4723C62.1417 13.2812 61.8246 13.4212 61.5907 13.6702C61.3569 13.9193 61.2256 14.2571 61.2256 14.6094C61.2256 14.9616 61.3569 15.2994 61.5907 15.5485C61.8246 15.7976 62.1417 15.9375 62.4723 15.9375Z" fill="#E62D78"/>
</svg>
