<svg width="74" height="85" viewBox="0 0 74 85" fill="none" xmlns="http://www.w3.org/2000/svg">
<path d="M54.2545 65.7421C53.3871 65.7421 52.6831 66.4858 52.6831 67.4022C52.6831 68.3186 53.3871 69.0624 54.2545 69.0624C55.1218 69.0624 55.8258 68.3186 55.8258 67.4022C55.8258 66.4858 55.1218 65.7421 54.2545 65.7421Z" fill="#E62D78"/>
<path d="M58.1233 60.3737L50.6547 57.7441L47.9735 52.0784C50.389 49.481 52.0661 46.0441 52.6316 42.4593L52.966 40.3418H55.8257C58.425 40.3418 60.5397 38.1076 60.5397 35.3613V24.9023C60.5397 11.1712 49.9661 0 36.9695 0C23.9396 0 13.3994 11.1392 13.3994 24.9023V35.3613C13.3994 37.5255 14.7132 39.3709 16.5421 40.0563V42.002C16.5421 44.7482 18.6568 46.9824 21.2561 46.9824H22.636C23.3172 48.5458 24.1989 49.9938 25.2718 51.2945C25.4943 51.5648 25.7264 51.8268 25.9642 52.0816L23.2844 57.7441L15.8156 60.3739C7.13159 63.4332 0.828613 73.0919 0.828613 83.3398C0.828613 84.2567 1.5321 85 2.39996 85H71.5391C72.4068 85 73.1105 84.2567 73.1105 83.3398C73.1105 73.0919 66.8076 63.4332 58.1233 60.3737ZM57.397 35.3613C57.397 36.2767 56.6921 37.0215 55.8257 37.0215H53.4275C53.8269 33.7526 54.0931 30.2741 54.2001 26.848C54.2033 26.7514 54.2058 26.6575 54.2086 26.5625H57.397V35.3613ZM18.1134 37.0215C17.247 37.0215 16.5421 36.2767 16.5421 35.3613V26.5625H19.7316C19.7368 26.7357 19.7423 26.9096 19.7484 27.0848C19.7485 27.0908 19.7489 27.0966 19.749 27.1026C19.749 27.103 19.749 27.1035 19.749 27.104C19.859 30.4363 20.1217 33.8245 20.5121 37.0213H18.1134V37.0215ZM21.2561 43.6621C20.3897 43.6621 19.6847 42.9174 19.6847 42.002V40.3418H20.9729L21.3073 42.46C21.3711 42.8626 21.4495 43.2637 21.5402 43.6621H21.2561ZM19.6874 23.2422H16.6018C17.3977 12.1157 26.1865 3.32031 36.9695 3.32031C47.7047 3.32031 56.5322 12.1145 57.3372 23.2422H54.2518C54.1387 14.0736 47.0719 6.64062 38.3761 6.64062H35.5633C26.8677 6.64062 19.8004 14.0736 19.6874 23.2422ZM35.5632 9.96094H38.3759C45.4169 9.96094 51.1157 16.0456 51.1116 23.4763C51.1116 23.9987 51.1077 24.4536 51.0994 24.8675C51.0994 24.8728 51.0992 24.8783 51.0992 24.8838L49.1338 24.5871C43.7944 23.7816 38.7529 21.1183 34.938 17.0878C34.6432 16.7765 34.2436 16.6016 33.8269 16.6016C29.6068 16.6016 25.5672 18.6329 22.8969 22.0648C23.555 15.3048 28.964 9.96094 35.5632 9.96094ZM24.7979 43.6621C24.0113 40.8974 23.1112 32.7627 22.9123 27.5498L25.0272 24.5705C26.9695 21.8352 29.9914 20.1357 33.2059 19.9406C37.4354 24.1933 42.9072 27.0016 48.6894 27.8739L51.0028 28.2232C50.8481 31.6904 50.5321 35.1697 50.0794 38.3697C50.0793 38.3707 50.0791 38.3719 50.079 38.373C49.935 39.4018 49.8216 40.0639 49.5318 41.9131C48.6996 47.1866 44.9752 51.9554 40.0586 53.2542C38.0352 53.7879 35.9035 53.7877 33.8812 53.2542C30.8113 52.4433 27.9964 50.1991 26.1797 46.9824H29.3831C30.0317 48.9147 31.7783 50.3027 33.8269 50.3027H36.9695C39.574 50.3027 41.6836 48.0741 41.6836 45.3223C41.6836 42.576 39.5689 40.3418 36.9695 40.3418H33.8269C31.7327 40.3418 30.0119 41.7709 29.3804 43.6621H24.7979ZM33.6947 56.614C34.7725 56.8539 35.8713 56.9766 36.9695 56.9766C37.8292 56.9766 38.6891 56.9005 39.5392 56.7531L36.7626 59.8554L33.6947 56.614ZM34.6023 62.269L29.6183 67.8375C28.2462 65.0627 27.0672 62.1748 26.1002 59.2184L27.9719 55.2636L34.6023 62.269ZM45.7009 54.7011L47.8385 59.2183C46.87 62.1797 45.6907 65.0685 44.32 67.84L38.9856 62.2041L45.7009 54.7011ZM32.2555 45.3223C32.2555 44.4057 32.9592 43.6621 33.8269 43.6621H36.9695C37.836 43.6621 38.5409 44.4069 38.5409 45.3223C38.5409 46.239 37.8371 46.9824 36.9695 46.9824H33.8269C32.9604 46.9824 32.2555 46.2377 32.2555 45.3223ZM4.03416 81.6797C4.65688 73.4554 9.83745 65.9801 16.8095 63.5237L23.4239 61.1949C24.6357 64.7351 26.137 68.1761 27.8964 71.4447C27.8994 71.4503 27.9023 71.4559 27.9052 71.4614C27.9052 71.4616 27.9054 71.4616 27.9054 71.4618C29.1909 73.8506 30.6378 76.1849 32.2065 78.401L34.1395 81.6797H4.03416ZM36.9695 80.1998L34.8385 76.5852C34.8146 76.5447 34.7891 76.5053 34.7621 76.4671C33.4896 74.6738 32.3026 72.7983 31.2216 70.8787L36.8254 64.6176L42.7303 70.8561C41.6419 72.7897 40.4509 74.673 39.1773 76.4668C39.1003 76.5752 39.2095 76.4044 36.9695 80.1998ZM39.7995 81.6797L41.7324 78.4012C43.308 76.1766 44.7653 73.8235 46.0637 71.4066C46.0716 71.392 46.0789 71.3771 46.0868 71.3625C46.0877 71.3607 46.0887 71.359 46.0896 71.3572C47.8268 68.1199 49.3123 64.7087 50.5152 61.1949L57.1294 63.5237C64.1016 65.9801 69.2822 73.4554 69.9049 81.6797H39.7995Z" fill="#E62D78"/>
<path d="M65.1824 74.9612C64.1323 72.7404 62.5941 70.7674 60.7341 69.2557C60.0462 68.6964 59.0597 68.8324 58.5306 69.5592C58.0014 70.286 58.1301 71.3282 58.8179 71.8874C60.3034 73.0948 61.5319 74.6708 62.3708 76.445C62.7594 77.2666 63.7038 77.5973 64.4788 77.1883C65.255 76.7785 65.5701 75.7814 65.1824 74.9612Z" fill="#E62D78"/>
</svg>
