<svg width="15" height="14" viewBox="0 0 15 14" fill="none" xmlns="http://www.w3.org/2000/svg">
<path d="M10.1249 1.95022V2.45022H10.6249H13.7498C14.1447 2.45022 14.4998 2.79073 14.4998 3.25033V5.20052C14.4998 5.66017 14.1447 6.00066 13.7498 6.00066H9.23127C9.15362 5.64007 8.84101 5.35057 8.43741 5.35057H6.56243C6.15883 5.35057 5.84622 5.64007 5.76857 6.00066H1.24999C0.855084 6.00066 0.5 5.66016 0.5 5.20052V3.25033C0.5 2.79074 0.855063 2.45022 1.24999 2.45019C1.25 2.45019 1.25001 2.45019 1.25001 2.45019H4.37493H4.87493V1.95019V1.30014C4.87493 0.840509 5.23003 0.5 5.62492 0.5H9.37486C9.76976 0.5 10.1249 0.840523 10.1249 1.30014V1.95022ZM9.37486 2.45022H9.87486V1.95022V1.30014V0.800138H9.37486H5.62492H5.12492V1.30014V1.95022V2.45022H5.62492H9.37486Z" stroke="#F1F1F1"/>
<path d="M1.24999 7.65079H5.7499V8.12588C5.7499 8.56297 6.09518 8.95093 6.5624 8.95093H8.43738C8.9046 8.95093 9.24988 8.56297 9.24988 8.12588V7.65079H13.7498C14.0135 7.65079 14.2679 7.58833 14.4998 7.47237V11.7013C14.4998 12.1609 14.1447 12.5014 13.7498 12.5014H1.24999C0.855092 12.5014 0.5 12.1609 0.5 11.7013V7.47239C0.731889 7.58833 0.986243 7.65079 1.24999 7.65079Z" stroke="#F1F1F1"/>
</svg>
