<svg width="46" height="43" viewBox="0 0 46 43" fill="none" xmlns="http://www.w3.org/2000/svg">
<path d="M19.8058 1.89668L19.8058 9.61662C19.8058 10.6641 18.9616 11.5125 17.9208 11.5125C14.207 11.5125 12.1866 15.3435 11.9062 22.906L17.9208 22.906C18.9615 22.906 19.8058 23.7556 19.8058 24.8019L19.8058 41.1029C19.8058 42.15 18.9616 42.9984 17.9208 42.9984L1.88505 42.9984C0.844547 42.9984 8.98251e-08 42.1491 2.0026e-07 41.1029L1.92104e-06 24.8018C2.30369e-06 21.1769 0.363833 17.8504 1.07806 14.9126C1.81179 11.901 2.93808 9.26804 4.4249 7.08612C5.95403 4.8439 7.86846 3.0844 10.1117 1.85904C12.3719 0.625864 14.9992 -2.24447e-06 17.9216 -2.03289e-06C18.9615 0.000791499 19.8058 0.849993 19.8058 1.89668ZM44.1155 11.5132C45.1561 11.5132 46 10.6641 46 9.61809L46 1.89655C46 0.849998 45.1561 0.00146097 44.1155 0.00146089C41.1945 0.00146068 38.5659 0.627456 36.3071 1.8605C34.0627 3.08573 32.1485 4.84377 30.6195 7.08758C29.1318 9.2695 28.0056 11.9026 27.2719 14.9157C26.5573 17.8535 26.1942 21.18 26.1942 24.8034L26.1942 41.1045C26.1942 42.1516 27.0389 43 28.0792 43L44.1155 43C45.1561 43 46 42.1508 46 41.1045L46 24.8034C46 23.7564 45.1561 22.9075 44.1155 22.9075L38.1853 22.9075C38.4623 15.3443 40.4536 11.5132 44.1155 11.5132Z" fill="#393939"/>
</svg>
