<svg width="60" height="60" viewBox="0 0 60 60" fill="none" xmlns="http://www.w3.org/2000/svg">
<path d="M31.0196 21.2482C30.6771 20.9057 30.1341 20.9192 29.808 21.2792C29.4814 21.6392 29.4951 22.2089 29.8376 22.5518L36.4127 29.0999H21.8571C21.384 29.0999 21 29.5031 21 29.9999C21 30.4967 21.384 30.8999 21.8571 30.8999H36.3853L29.8376 37.4484C29.4947 37.7913 29.4814 38.361 29.808 38.721C29.9764 38.9064 30.2023 39 30.4286 39C30.6411 39 30.8537 38.9176 31.0196 38.7516L38.4977 31.2725C38.8217 30.9327 39 30.4809 39 29.9999C39 29.5188 38.8217 29.067 38.4827 28.712L31.0196 21.2482Z" fill="white"/>
<circle cx="30" cy="30" r="29" stroke="white" stroke-width="2"/>
</svg>
